<svg xmlns="http://www.w3.org/2000/svg" viewBox="307.6 311.4 1439.7 1439.7"><path d="M604 432.8c-18.8 11-46 30.7-68.2 49.4a594 594 0 0 0-61.8 62.3c-29.4 36.8-49.7 75.6-58.6 112-8.5 35.1-7 74.5 4.2 105.7 18.3 50.9 66.8 93.1 136.2 118.7 39.9 14.7 87.6 24.6 151.5 31.6 14.3 1.5 17.7 2.5 17.7 5.1 0 .8-3 4.5-6.8 8.2a74 74 0 0 1-29 17.4c-5.6 1.2-7.3 1.1-26.7-2.8a269 269 0 0 0-60.3-1 224 224 0 0 0-71.8 23.5c-30.2 15.7-63.4 41.8-63.4 49.9 0 4.5 4.7 10 15.7 18.4 30.1 23.1 56.8 36.2 85.6 42 15.7 3.2 43.4 3.2 58.4 0 25-5.4 48.3-16.7 75.6-36.8 3.2-2.3 4.1-2.6 6.2-1.6 3.3 1.5 4.1 5.2 6 27.2a863 863 0 0 0 9.1 73.5c6.9 41.6 13.9 66.1 25.4 89.3 9.8 19.6 17.5 30.8 49.8 72.2 17.5 22.4 27.6 39.5 33.1 56.4 6.5 19.6 9.9 37.4 10.8 55.6.5 12.1.4 13.1-3.6 30.5-6.4 28.3-7.1 36.4-5.1 59.5 2.1 22.5 7.6 37.4 18 47.9a57 57 0 0 0 27.1 14.7c15 4.2 17.6 6 27.5 19.1 16.5 21.8 32.8 32.6 55.9 37 7 1.4 11 1.4 32.8.3 17.4-.9 30.7-1 44.5-.4 41.5 1.9 50.4 1.1 66-6.2 14.3-6.5 25.3-16.2 37.6-33a57 57 0 0 1 9.2-10.3c1.8-1.2 8.3-3.8 14.6-5.8 15.4-4.8 22.1-8.4 29.3-15.7 13.1-13.2 18.5-32.1 18.5-64.6 0-13.9-1.2-22.5-6.2-44l-4-17.5 1.1-13.5c1.4-16.1 6-40 10.2-52.5 7-20.8 14.6-33.3 40.4-66.5 26.3-33.8 36.4-49 45.1-67.6 15-32 24.9-80 31.9-154.9 2-21.3 2.8-26.4 4.3-28.5 1.1-1.4 2.5-2.6 3.3-2.8 1.5-.2 2.1.1 18.4 11.4a221 221 0 0 0 44.8 22.9c17.1 5.6 25.7 6.9 46.7 6.9 16.4 0 21.1-.3 29.7-2.2 28.3-6.1 53.4-18.3 81.5-39.4 19.4-14.6 22.1-19.4 15.6-27.6-9.4-11.8-40.9-34.2-64.3-45.7a201 201 0 0 0-94-22.5c-17.3 0-25.3.8-42.7 4.2-13.3 2.6-17 2.1-29.1-3.9-7-3.6-10.9-6.3-16.4-11.9-7.3-7.2-9-10.8-5.5-11.8.9-.3 11.8-1.7 24.2-3.1 78-8.8 134.3-23.6 180.5-47.4 81.2-41.8 117.5-106.6 105.9-189.1-11.3-80-78-167.8-176.5-232.3-17.8-11.7-21.8-13.7-26.7-13.7a15 15 0 0 0-11.9 7c-.7 1.4-1.3 4.9-1.3 7.7 0 5.1.3 5.7 9.3 17.5 77.5 102.3 104.4 174.2 83.2 222.5-12.2 27.6-42.9 48.6-86.9 59.4-39 9.5-99.1 11.4-151.6 4.8-12.6-1.6-14-2.2-20.8-9.8-11.4-12.7-19.3-16.5-47.6-22.6a792 792 0 0 0-164.6-17.2 945 945 0 0 0-134.5 6.3 679 679 0 0 0-86 16.5 60 60 0 0 0-25.8 17.7c-5.1 6.8-6.7 7.4-23.8 9.6a482 482 0 0 1-116.4 0c-65.1-8.2-107.1-32.8-120.8-70.9-11.5-32-1.4-77.3 29.4-132.3a674 674 0 0 1 51.6-78.4c6.9-9.2 12.9-18.3 13.4-20.3 1.2-4.4-.3-10.4-3.3-13.2-6.2-5.6-11.8-5.8-20.8-.5"/></svg>
