<svg xmlns="http://www.w3.org/2000/svg" viewBox="296.5 289.3 1476.7 1476.7"><path d="M604.4 614.2a89 89 0 0 0 28.4 59.1c6.7 6.2 14.9 11.4 30.6 19.4 7.2 3.6 15.6 8.3 18.6 10.3a49 49 0 0 1 15.6 16.5 19 19 0 0 1-.1 14.4c-3.5 6.8-15.3 14.3-30 19.1-9.3 3-13.2 6.1-16.4 12.9-2.2 4.7-2.6 7-2.6 14.6 0 8 .3 9.7 3.2 15.7 4 8.5 10 15 17.2 18.5 13.8 6.8 34.1 1.4 60.1-16a83 83 0 0 0 35.6-49.4 78 78 0 0 0-1.9-37.1c-8.8-25.1-30-42.4-65-53.3L672 651a120 120 0 0 1-56.4-34.4l-11.9-12.1zm309.1 40.5c-10.4.9-30.3 4.9-42.5 8.4a323 323 0 0 0-51 19.7c-36.6 16.7-38.1 17.4-37.4 19.1 3.5 8.4 6.4 23.2 6.4 33 0 7-2.7 21.2-5.5 29.3a77 77 0 0 1-10.5 20.3q-3.9 2.4 6.8 2.5c22.8 0 50.1 9.5 74.2 25.8 10.5 7.2 10.9 8.4 5.1 18.2a142 142 0 0 1-37 39.9 97 97 0 0 1-81.8 12.6c-9.7-3.1-13.3-6.3-13.3-12.1 0-8.4 6.8-12.5 16.3-9.8 2.9.8 8.8 2.1 13.2 3 25.6 4.9 56.1-8.3 74.6-32.3 4.9-6.3 5.5-5.5-7.6-11.8-23.3-11.3-50.2-14.5-69.7-8.2-4.3 1.4-15.8 6.8-25.5 12-20.3 10.9-30.5 14.7-41.4 15.4a55.5 55.5 0 0 1-53.7-31.7 59 59 0 0 1-7.2-28q0-13.7 6.2-25.2c1.7-3.2 2.9-6 2.7-6.3-.9-.8-15.8 2.8-29 7.1-9.8 3.2-16.5 4.7-23.7 5.4-21.1 2-33.3 9.2-43.9 25.7A110 110 0 0 0 526 822a181 181 0 0 1-13.8 42.1c-10.8 24.2-10.5 30.8 1.9 52.9 4 7.2 3.9 8-5 49-9.4 43.1-11.4 50.8-16.6 61.8-5.4 11.4-6.2 16-4.1 24.1 2 8 5.4 12.8 16.1 22.9 20.1 19.1 30 22.2 64.8 20.2 10-.5 20-1.5 22.2-2.1a44 44 0 0 0 27-22.9c9.5-17.6 15.9-22.4 39.8-30.1 25-8 41.7-17.6 56.4-32.5 15-15.3 26.4-36.8 28.8-54.3 1-7.1 4.6-11.1 10-11.1 4.9 0 9 2.3 10.5 6 3.8 9.3-4.9 36.5-18.2 56.5A171 171 0 0 1 709 1041a148.5 148.5 0 0 1 32.2 31c2.6 3.6 10.1 16.4 16.8 28.5a629 629 0 0 0 17.3 29.5 188 188 0 0 0 100.2 75.4c15.3 5 39.5 10.4 39.5 8.8 0-.3-4.6-9.3-10.2-20.1-13-25-15.3-29.9-18.9-38.8-3.7-9.4-8.4-27.3-10.3-39.2-1.3-7.9-1.3-9.8-.2-12.6 2.7-6.4 9.1-8.3 15.3-4.6 3.6 2.2 3.5 2.1 6.2 15.7a202 202 0 0 0 23.6 63c18.8 33.6 21.3 41.7 22.5 73.4.9 23.9 1.7 28.8 6.7 40.5 7.2 16.6 7.5 17.5 7.4 26.7a180 180 0 0 1-6.1 40c-1.5 4.9-5 11.1-12.5 22.3a189 189 0 0 0-22.9 43.7c-4.2 11.2-4.5 14.7-1.5 17.4 2 1.8 4.1 1.9 39.3 1.9 28.1 0 38-.3 40.8-1.3 7.8-2.8 11-10 12.7-28.5.5-5.9 1.5-11.4 2.1-12.2s3.4-2.1 6.1-3c9.4-3.2 9.8-4.6 7.7-32.2-2.1-28.4.6-45.4 11.3-71.1a111 111 0 0 0 10.9-45.1q1.6-25.3 7.1-41.2c1.2-3.5 6.7-16.1 12.1-27.9 17.1-37 20.4-49.8 19.5-76.5-.7-18.2-2.8-30.2-8.2-45.3-4.3-11.9-4.4-15.2-.7-19.3 4.6-5.1 12.5-4 16.7 2.5 2.7 4.1 8.7 22.5 11.2 34.6a190 190 0 0 1 1.9 57 207 207 0 0 1-18 51c-6.1 12.8-8 17.6-7 17.8a246 246 0 0 0 33.9-6.4 460 460 0 0 0 65.5-23.2c53.7-22.4 80.1-30.7 109.4-34.4 5.3-.7 9.6-1.5 9.6-1.9s-2.2-5.3-4.9-11c-9.4-20.1-19.1-50.2-19.1-59.7 0-5.4 1.2-7.7 5-9.7 4.1-2.1 8.5-1.9 11.5.7 2 1.8 3.6 5.6 7 17.3 13 44.5 33.5 79.6 64.4 110.6 21.9 21.8 39.6 34.1 76.7 53.2a546 546 0 0 1 33.4 18.2 138 138 0 0 1 32.6 33c14.6 22.4 27.2 62.1 26.2 82.4-.4 8.3-.8 9.5-6.5 21.7-9.4 19.9-15.1 37.7-13.8 43.6 1.4 6.2 2.1 6.3 42 6.3 40.4 0 39.6.1 43.6-6.9 2.3-3.9 2.4-4.8 2.1-20.7l-.2-16.6 3.5-4.9c7.5-10.4 7.6-10.7 7.2-15.4-.2-2.5-3.1-10.7-6.5-18.7a229 229 0 0 1-14.6-44.3 541 541 0 0 1-10.2-79.5c-.5-8.7-1.2-13-2.5-15.7a66 66 0 0 0-13.8-13.3c-30.5-24.3-43.5-46.9-47.3-81.7-.9-8.7-.9-15.5.3-34.1 2-33.1 1.8-72.9-.4-88.2-5.2-35-14.7-61.2-30.8-85.3-2.7-4-4.9-7.6-4.9-8.1 0-1.9 11.9-3.6 25.5-3.6 11.9 0 15.1.4 21.5 2.3a73.7 73.7 0 0 1 52 71.3c0 12.4-1.8 21.9-8.6 44.3-7.2 23.7-8.8 33.1-8.1 47.1a60 60 0 0 0 8.4 30.5 77 77 0 0 0 22.7 22.9 78 78 0 0 0 47.4 10.1c13.2-1.5 13.3-1.6 6.3-6.2-11.7-7.6-17.7-16.9-24.6-37.8-2.1-6.3-4.4-12.8-5.2-14.4a58 58 0 0 0-17.3-17q-7.6-5.4-9-8.5c-2.1-5.1-.6-14.2 5.3-32.6 7.5-23.6 9.1-33 8.4-50.8a94.7 94.7 0 0 0-42.9-77.4c-30.2-20.1-66.5-24.6-105.6-13.1l-7.3 2.1-2.7-2.1a302 302 0 0 0-35.7-22.9c-23.2-11.8-42.9-17.5-88.5-25.8-59.8-10.8-81.8-16.3-111.4-27.9-52.6-20.7-73.7-33.3-133.6-80.1-45.7-35.7-66.8-48.9-91-56.9a185 185 0 0 0-70.5-8.9M637.6 878.6c.4 1.4.4 6.2.1 10.6-.9 13.2-6.1 21.2-16.3 25.2-8 3.2-30.4 5-30.4 2.5 0-.6 1.2-3.9 2.6-7.5 7.3-18.4 16.7-27.6 32.4-31.8 8.5-2.3 10.8-2.1 11.6 1M417.3 673.2a114 114 0 0 0-19 70 74 74 0 0 0 8.8 37.3 94 94 0 0 0 51.1 45.9c9.4 3.9 25.5 8.1 34.9 9.2 7.1.8 6.3 2.1 11.9-21.2 3.7-15.3 7.6-26.8 12.1-35.6l2.1-4.1-6.4.7c-7.5.8-24.5-.7-33.7-3a70 70 0 0 1-37.8-23.8c-11.9-15.7-17.4-37-17.7-67.8 0-8.7-.3-15.8-.6-15.8a55 55 0 0 0-5.7 8.2m319.1 457.5c-3.4 5.4-10.3 17.1-15.5 26.1s-12.4 20.4-16.2 25.5c-10.5 13.8-13.4 18.6-15.7 25.1a48 48 0 0 0 2.6 38.5c3 6.1 6.2 10 18.9 23.1a287 287 0 0 1 40.4 51.4c16 23.9 20.2 27.6 37.1 32.6 4.1 1.2 12.9 4.4 19.5 7 13.4 5.3 22.9 8.1 35.4 10.4 8.8 1.7 19.8 2.1 21.8.8 3.5-2.2 3.3-11.2-.8-32.7-3.8-20.3-12.9-44-18.5-48.4-3.2-2.5-7.1-2.6-21.9-.6-12.1 1.7-11.9 1.8-12.9-4.7-1-6-4.1-11.4-7.3-12.6-1.5-.6-5.4-1.8-8.7-2.7q-11.4-3.1-18.8-18.5c-5.2-10.7-5.5-12.4-2.5-15.2 1.4-1.3 9-5 16.9-8.2 15-6.1 37.8-17.3 37.8-18.4 0-.4-2.4-2.1-5.3-3.9a216 216 0 0 1-72.7-74.2 75 75 0 0 0-6.8-10.1c-.4 0-3.5 4.4-6.8 9.7m557.1 29.9c-23.6 3.6-45 9.2-66 17.1-11.7 4.5-41.6 17-42.4 17.8-.6.7 7.7 14.4 13.5 22.1 2.9 3.9 12.1 14.1 20.6 22.6 18.7 18.9 21.3 23 21.2 33.8 0 8.8-1.9 15.1-8 27-7.2 14-26.9 39.1-47.6 60.7a160 160 0 0 0-35.3 57.5c-2.6 7.3-2.7 7.9-1.1 10.2a7 7 0 0 0 4.8 3.1c1.8.3 18.2.5 36.3.3 31.1-.3 33.2-.4 36.9-2.4 5.1-2.6 7.1-6.6 9.7-19 3.5-16 3-15.4 10.6-15.4 8.2 0 10.4-2 13.3-12.1 7.5-25.7 10.9-32.9 22.2-48.1 4-5.3 13.6-16.5 21.3-24.8 34.8-37.6 34.7-37.5 34.7-46.9 0-4.5-1-8.1-5-17.6a78 78 0 0 1-8-38.8 63 63 0 0 1 2.8-17.8l2.2-6.7-6.1-7.6c-3.3-4.2-7.4-9.7-9.1-12.1-3-4.3-3.3-4.5-7.8-4.4-2.6.1-8.7.7-13.7 1.5"/></svg>
